<?xml version="1.0" standalone="no"?>
<!DOCTYPE svg PUBLIC "-//W3C//DTD SVG 20010904//EN"
 "http://www.w3.org/TR/2001/REC-SVG-20010904/DTD/svg10.dtd">
<svg version="1.0" xmlns="http://www.w3.org/2000/svg"
 width="1024.000000pt" height="1007.000000pt" viewBox="0 0 1024.000000 1007.000000"
 preserveAspectRatio="xMidYMid meet">

<g transform="translate(0.000000,1007.000000) scale(0.100000,-0.100000)"
fill="#0072bd" stroke="none">
<path d="M5213 9799 c-191 -32 -348 -158 -451 -364 -92 -185 -180 -547 -266
-1100 -93 -590 -167 -1208 -361 -3005 -139 -1284 -234 -2100 -296 -2518 -10
-73 -19 -138 -19 -143 0 -22 -19 3 -25 34 -13 58 -136 430 -177 532 -160 403
-345 611 -604 680 -76 20 -231 20 -309 0 -131 -34 -260 -118 -364 -238 -119
-136 -211 -304 -392 -717 -59 -134 -111 -246 -116 -247 -5 -2 -22 22 -38 52
-21 39 -34 53 -45 49 -34 -13 -839 -490 -840 -497 0 -13 114 -206 198 -336
185 -287 340 -424 556 -490 163 -50 331 -35 491 44 228 113 399 336 596 780
68 155 75 165 83 139 3 -11 61 -217 130 -459 230 -811 327 -1040 513 -1216
116 -109 254 -164 413 -163 236 1 434 142 563 400 160 318 294 1001 456 2314
62 501 106 884 220 1945 136 1260 165 1515 171 1515 3 0 13 -66 22 -147 9 -82
71 -650 137 -1263 213 -1954 294 -2611 402 -3255 160 -949 308 -1305 602
-1448 94 -46 163 -61 267 -61 261 1 474 173 620 502 87 194 149 384 300 922
60 212 113 396 118 410 10 24 11 23 32 -25 199 -448 321 -646 488 -788 166
-141 384 -202 582 -163 222 44 408 188 589 456 83 122 231 370 231 386 0 10
-828 499 -844 499 -6 0 -25 -26 -44 -58 -19 -32 -36 -56 -37 -55 -2 2 -46 104
-100 228 -132 306 -221 485 -305 614 -80 122 -195 242 -283 295 -217 129 -480
124 -685 -13 -162 -107 -293 -297 -411 -593 -36 -92 -171 -496 -171 -513 0
-15 -20 -63 -25 -58 -6 6 -79 544 -125 923 -54 450 -104 898 -205 1835 -230
2129 -332 2913 -451 3468 -89 415 -168 605 -309 747 -84 85 -177 137 -287 159
-84 17 -116 18 -195 5z"/>
</g>
</svg>
